<?xml version="1.0" encoding="utf-8"?>
<!-- Generator: Adobe Illustrator 27.2.0, SVG Export Plug-In . SVG Version: 6.00 Build 0)  -->
<svg version="1.1" xmlns="http://www.w3.org/2000/svg" xmlns:xlink="http://www.w3.org/1999/xlink" x="0px" y="0px"
	 viewBox="0 0 464.45 461.88" style="enable-background:new 0 0 464.45 461.88;" xml:space="preserve">
<style type="text/css">
	.st0{fill:#FFFFFF;}
	.st1{fill:#EDF1F6;}
	.st2{fill:#C40064;}
	.st3{fill:#08090A;}
	.st4{fill:#A2C037;}
	.st5{fill:#0E110F;}
</style>
<g id="Lager_2">
</g>
<g id="Lager_1">
</g>
<g id="TYPO">
</g>
<g id="SPAD_2">
</g>
<g id="SPAD_1">
</g>
<g id="ROS">
	<g>
		<circle class="st3" cx="232.22" cy="230.94" r="224.79"/>
		<circle class="st4" cx="232.22" cy="230.94" r="151.52"/>
		<g>
			<g>
				<path class="st5" d="M326.75,349.77c4.37-3.83-2.98-23.75-19.1-37.46c-25.79-21.94-75.52-65.83-90.13-81.22
					c-11.03-11.62-9.17-14.9-5.44-22.76c3.73-7.86,6.84-13.75,10.41-20.79c3.57-7.04,4.82-13.92-11.19-26.52
					c-16-12.61-100.99-72.36-114.19-78.75c-13.21-6.38-20.04,0.17-21.93,2.15c-1.89,1.99,32.25,47.16,16.88,88.68
					c6.81-15.75,43.84,37.9,55.8,54.76c11.96,16.86,18.49,15.55,25.17,11.79c6.68-3.77,12.27-7.04,19.73-10.97s10.56-5.89,21.6,5.73
					c14.6,15.39,62.4,64.96,77.05,99.23c3.49,8.17,15.9,29.4,2.05,35.92c12.41,12.05,17.01-6.98,22.29-10.34
					C320.04,356.51,323.65,352.49,326.75,349.77z"/>
			</g>
		</g>
		<g>
			<g>
				<path class="st5" d="M137.32,349.77c-4.37-3.83,2.98-23.75,19.1-37.46c25.79-21.94,75.52-65.83,90.13-81.22
					c11.03-11.62,9.17-14.9,5.44-22.76c-3.73-7.86-6.84-13.75-10.41-20.79c-3.57-7.04-4.82-13.92,11.19-26.52
					c16-12.61,100.99-72.36,114.19-78.75c13.21-6.38,20.04,0.17,21.93,2.15c1.89,1.99-32.25,47.16-16.88,88.68
					c-6.81-15.75-43.84,37.9-55.8,54.76c-11.96,16.86-18.49,15.55-25.17,11.79c-6.68-3.77-12.27-7.04-19.73-10.97
					c-7.46-3.93-10.56-5.89-21.6,5.73c-14.6,15.39-62.4,64.96-77.05,99.23c-3.49,8.17-15.9,29.4-2.05,35.92
					c-12.41,12.05-17.01-6.98-22.29-10.34C144.03,356.51,140.42,352.49,137.32,349.77z"/>
			</g>
		</g>
		<g>
			<path class="st4" d="M28.11,250.12l8.2-1.09l-0.69-4.89l6.01-0.73l0.69,4.89l7.92-1.11l-0.69-4.89l6.02-0.68l0.68,4.84l8.64-1.16
				l0.86,6.1l-8.64,1.16l0.9,6.43l8.65-1.1l0.85,6.05l-8.64,1.16l0.69,4.95l-6.02,0.68l-0.69-4.89l-7.92,1.11l0.69,4.89l-6.01,0.73
				l-0.69-4.89l-8.2,1.09l-0.86-6.1l8.2-1.09l-0.91-6.49l-8.2,1.09L28.11,250.12z M43.16,254.35l0.91,6.49l7.92-1.06l-0.91-6.49
				L43.16,254.35z"/>
			<path class="st4" d="M39.7,302.66c-1.09-2.91-1.63-5.53-1.62-7.84c0-2.31,0.71-4.32,2.1-6.03c1.4-1.71,3.59-3.12,6.57-4.23
				l23.98-8.95l2.68,7.18l-24.24,9.04c-2.05,0.76-3.32,1.86-3.81,3.29c-0.49,1.43-0.35,3.18,0.42,5.26c0.81,2.18,1.88,3.66,3.2,4.44
				c1.31,0.77,3,0.78,5.04,0.01l24.24-9.04l2.68,7.18l-23.87,8.91c-2.98,1.11-5.57,1.48-7.77,1.09c-2.2-0.38-4.06-1.45-5.6-3.18
				C42.16,308.05,40.83,305.67,39.7,302.66z"/>
			<path class="st4" d="M53.72,332.53l31.43-21.2l5.59,8.28l-15.29,24.98l0.56,0.83l22.09-14.9l4.28,6.35l-31.43,21.2l-5.53-8.19
				l15.6-25.32l-0.56-0.83L58,338.88L53.72,332.53z"/>
			<path class="st4" d="M83.15,372.07l25.63-27.94l10.68,9.79c2.18,2,3.73,3.99,4.66,5.97c0.92,1.98,1.3,3.97,1.12,5.96
				c-0.18,2-0.83,4.01-1.96,6.04c-1.13,2.03-2.67,4.1-4.62,6.23c-1.98,2.15-3.95,3.94-5.92,5.34c-1.97,1.41-3.98,2.35-6.03,2.83
				c-2.05,0.48-4.13,0.39-6.24-0.26c-2.11-0.66-4.27-2-6.48-4.02L83.15,372.07z M93.15,372.51l4.87,4.47
				c1.28,1.18,2.54,1.88,3.78,2.12c1.24,0.23,2.48,0.1,3.72-0.4c1.24-0.5,2.46-1.26,3.67-2.28c1.21-1.02,2.44-2.21,3.7-3.58
				c1.2-1.31,2.21-2.58,3.04-3.8c0.82-1.23,1.38-2.42,1.67-3.59c0.29-1.17,0.24-2.31-0.15-3.45c-0.39-1.14-1.23-2.29-2.51-3.47
				l-4.87-4.47L93.15,372.51z"/>
			<path class="st4" d="M131.54,409.99c-2.71-1.52-4.81-3.17-6.29-4.94c-1.49-1.77-2.25-3.76-2.28-5.97
				c-0.03-2.21,0.73-4.69,2.29-7.47l12.55-22.3l6.68,3.76l-12.69,22.54c-1.07,1.9-1.33,3.56-0.79,4.97
				c0.54,1.41,1.78,2.66,3.72,3.75c2.03,1.14,3.8,1.59,5.3,1.33c1.5-0.26,2.79-1.34,3.86-3.24l12.69-22.54l6.68,3.76l-12.5,22.2
				c-1.56,2.77-3.31,4.72-5.23,5.84c-1.93,1.12-4.04,1.52-6.33,1.18S134.34,411.57,131.54,409.99z"/>
			<path class="st4" d="M168.07,425.5l9.29-30.01l-9.76-3.02l1.92-6.2l26.51,8.21l-1.92,6.2l-9.44-2.92l-9.29,30.01L168.07,425.5z"
				/>
			<path class="st4" d="M200.39,434.23l2.17-37.85l12.3,0.7l6.2,25.71l8.93-24.84l12.47,0.71l-2.17,37.85l-7.65-0.44l1.6-28.04
				l-0.78-0.04L224,434.58l-7.2-0.41l-6.38-27.5l-0.78-0.04l-1.6,28.04L200.39,434.23z"/>
			<path class="st4" d="M256.45,434.95l2.06-39.07l13.12-2.61l16.83,35.31l-7.51,1.5l-3.57-7.1l-13.01,2.59l-0.46,7.9L256.45,434.95
				z M264.37,419.28l10.72-2.14l-7.68-16.69l-2.29,0.46L264.37,419.28z"/>
			<path class="st4" d="M303.34,423.65l-15.78-34.48l9.09-4.16l22.14,19.17l0.91-0.42l-11.09-24.23l6.97-3.19l15.78,34.48
				l-8.98,4.11l-22.43-19.53l-0.91,0.42l11.27,24.63L303.34,423.65z"/>
			<path class="st4" d="M345.71,401.46l-21.62-31.14l6.29-4.37L352,397.09L345.71,401.46z"/>
			<path class="st4" d="M365.83,386.89l-26.76-26.86l7.08-7.05l27.42,10.3l0.71-0.71l-18.8-18.88l5.43-5.41l26.76,26.86l-7,6.97
				l-27.81-10.54l-0.71,0.71l19.12,19.19L365.83,386.89z"/>
			<path class="st4" d="M407.23,338.4c-1.68,2.7-3.42,4.71-5.23,6.03c-1.8,1.32-3.71,2.04-5.72,2.16c-2.01,0.12-4.18-0.26-6.49-1.13
				c-2.31-0.87-4.82-2.15-7.52-3.83c-2.86-1.78-5.19-3.55-7-5.3c-1.81-1.76-3.06-3.59-3.77-5.49c-0.71-1.9-0.87-3.92-0.48-6.05
				c0.39-2.13,1.37-4.46,2.93-6.97c0.8-1.29,1.71-2.59,2.72-3.9c1.01-1.31,2.02-2.53,3.04-3.67c1.01-1.14,1.89-2.06,2.64-2.77
				l5.03,3.26c-0.7,0.78-1.51,1.75-2.4,2.92c-0.9,1.16-1.79,2.36-2.67,3.6c-0.88,1.24-1.64,2.38-2.29,3.41
				c-0.98,1.57-1.57,2.98-1.78,4.22c-0.21,1.24-0.03,2.4,0.55,3.48s1.5,2.14,2.78,3.2c1.28,1.06,2.9,2.2,4.84,3.41
				c2.48,1.55,4.66,2.65,6.53,3.32c1.87,0.67,3.53,0.72,4.97,0.15c1.44-0.56,2.78-1.83,4.01-3.81c0.31-0.5,0.63-1.05,0.97-1.66
				c0.33-0.6,0.64-1.19,0.92-1.78c0.28-0.59,0.51-1.09,0.68-1.51l-7.02-4.37l-2.38,3.82l-4.95-3.08l6.22-9.99l16.63,10.36
				c-0.34,0.75-0.74,1.66-1.2,2.72c-0.47,1.06-0.96,2.16-1.49,3.29c-0.53,1.13-1.06,2.22-1.58,3.27S407.7,337.65,407.23,338.4z"/>
			<path class="st4" d="M420.99,311.39l-5.64-2.02l-5.28-10.79c-1-2.05-1.89-3.82-2.67-5.32c-0.78-1.5-1.59-2.72-2.43-3.67
				c-0.84-0.95-1.85-1.64-3.04-2.06c-1.74-0.62-3.09-0.56-4.05,0.2c-0.96,0.76-1.83,2.22-2.6,4.38c-0.31,0.87-0.6,1.85-0.87,2.93
				c-0.27,1.08-0.51,2.13-0.71,3.14c-0.2,1.01-0.36,1.89-0.47,2.63l-5.67-1.62c0.06-0.84,0.18-1.87,0.34-3.09
				c0.16-1.22,0.39-2.53,0.67-3.94c0.29-1.41,0.66-2.76,1.12-4.05c1.35-3.76,3.17-6.35,5.46-7.77c2.3-1.42,5.1-1.54,8.41-0.35
				c1.81,0.65,3.32,1.48,4.54,2.48c1.21,1,2.27,2.27,3.16,3.78c0.89,1.52,1.77,3.42,2.65,5.69l4.12,9.26l5.26-14.69l5.85,2.1
				L420.99,311.39z"/>
			<path class="st4" d="M435.53,260.32c-0.19,1.36-0.46,2.77-0.82,4.23c-0.35,1.46-0.75,2.85-1.17,4.15
				c-0.43,1.3-0.79,2.38-1.1,3.24l-5.84-1.15c0.23-0.86,0.51-1.9,0.83-3.11c0.32-1.21,0.62-2.45,0.89-3.74
				c0.27-1.29,0.49-2.48,0.64-3.58c0.29-2.09,0.13-3.7-0.5-4.83c-0.63-1.13-1.8-1.82-3.52-2.06c-1.17-0.16-2.13-0.06-2.87,0.3
				c-0.74,0.36-1.34,0.95-1.79,1.77c-0.45,0.81-0.77,1.79-0.97,2.92l-1.05,7.48l-6.05-0.85l1.03-7.31c0.12-0.84,0.05-1.68-0.21-2.52
				c-0.26-0.84-0.7-1.56-1.32-2.15c-0.63-0.59-1.44-0.96-2.42-1.1c-1.54-0.22-2.69,0.1-3.47,0.94c-0.77,0.84-1.31,2.31-1.6,4.4
				c-0.15,1.1-0.26,2.26-0.32,3.49c-0.06,1.22-0.1,2.4-0.13,3.51c-0.03,1.12-0.02,2.05,0.03,2.81l-5.82-0.48
				c-0.11-0.84-0.2-1.86-0.27-3.06c-0.07-1.21-0.1-2.48-0.08-3.82c0.02-1.34,0.11-2.6,0.28-3.77c0.44-3.11,1.11-5.59,2.02-7.42
				c0.91-1.83,2.15-3.09,3.72-3.77c1.57-0.68,3.53-0.85,5.88-0.52c1.28,0.18,2.34,0.49,3.18,0.92c0.84,0.44,1.53,0.94,2.08,1.53
				c0.55,0.58,0.99,1.16,1.3,1.72c0.31,0.57,0.59,1.09,0.82,1.57c0.67-1.03,1.37-1.9,2.1-2.62c0.74-0.72,1.65-1.23,2.74-1.52
				c1.09-0.3,2.49-0.32,4.22-0.08c2.75,0.39,4.89,1.17,6.42,2.36c1.53,1.19,2.54,2.79,3.03,4.8
				C435.9,254.98,435.94,257.43,435.53,260.32z"/>
		</g>
		<g>
			<g>
				<path class="st0" d="M316.58,219.03c11.96-16,68.67-100.99,74.73-114.19c6.06-13.21-0.16-20.04-2.04-21.93
					c-1.89-1.89-8.72-8.1-21.93-2.04c-13.21,6.06-98.19,62.77-114.19,74.73c-16,11.96-14.76,18.49-11.19,25.17
					c3.57,6.68,6.68,12.27,10.41,19.73s5.59,10.56-5.44,21.6c-14.6,14.6-64.34,56.26-90.13,77.08
					c-25.79,20.82-21.67,29.84-17.65,33.86c4.02,4.02,13.04,8.14,33.86-17.65c20.82-25.79,62.47-75.52,77.08-90.13
					c11.03-11.03,14.14-9.17,21.6-5.44c7.46,3.73,13.05,6.84,19.73,10.41C298.09,233.79,304.62,235.03,316.58,219.03z"/>
			</g>
		</g>
		<path class="st1" d="M271.8,145.53c0,0,46.08-31.43,55.77-37.81c9.69-6.38,8.98-2.6,0,12.53s0.95,21.74-10.87,45.14
			s-4.25,30.25,2.36,30.25s11.34-0.24,7.09,5.44s-9.22,12.76-13.71,18.2c-4.49,5.44-2.36-10.4-7.09-16.07
			c-4.73-5.67-20.32-28.6-20.56-43.01c-0.24-14.42-7.33-12.29-11.82-10.16S268.73,147.89,271.8,145.53z"/>
		<path class="st1" d="M355.62,91.17c6.52-4.49,15.44-10.24,19.85-10.56c4.41-0.32,6.62,1.58,2.99,13.55
			c-3.62,11.97-8.98,26.78-7.4,29.78c1.58,2.99,3.31,5.99-0.95,12.6s-11.19,16.7-15.76,24.42c-4.57,7.72,2.99-50.26,3.62-58.29
			C358.61,94.64,351.05,94.32,355.62,91.17z"/>
		<path class="st1" d="M214.45,257.54c-4.96,9.01-21.43,27.89-34.35,37.34c-12.92,9.45-22.69,8.98-26.47,18.59
			c-3.78,9.61-7.05,9.93-10.08,9.93c-5.36,0-4.57,9.77,0.95,9.77s7.25,0.47,25.21-17.49c17.96-17.96,50.46-59.87,61.8-71.84
			S225.24,237.93,214.45,257.54z"/>
		<path class="st5" d="M223.62,243.16c0,0,2.76-1.93,5.1,0.77c1.93,2.22,0.59,4.24,0.59,4.24l3.3-3.77l-4.6-5.03L223.62,243.16z"/>
		<g>
			<path class="st0" d="M211.3,155.59c-16-11.96-100.99-68.67-114.19-74.73c-13.21-6.06-20.04,0.16-21.93,2.04
				c-1.89,1.89-8.1,8.72-2.04,21.93c6.06,13.21,62.77,98.19,74.73,114.19c11.96,16,18.49,14.76,25.17,11.19
				c6.68-3.57,12.27-6.68,19.73-10.41s10.56-5.59,21.6,5.44c14.6,14.6,56.26,64.34,77.08,90.13c20.82,25.79,29.84,21.67,33.86,17.65
				c4.02-4.02,8.14-13.04-17.65-33.86c-25.79-20.82-75.52-62.47-90.13-77.08c-11.03-11.03-9.17-14.14-5.44-21.6
				c3.73-7.46,6.84-13.05,10.41-19.73C226.06,174.08,227.31,167.56,211.3,155.59z"/>
		</g>
		<path class="st1" d="M192.95,146.94c0,0-46.08-31.43-55.77-37.81c-9.69-6.38-8.98-2.6,0,12.53c8.98,15.12-0.95,21.74,10.87,45.14
			s4.25,30.25-2.36,30.25c-6.62,0-11.34-0.24-7.09,5.44s9.22,12.76,13.71,18.2s2.36-10.4,7.09-16.07
			c4.73-5.67,20.32-28.6,20.56-43.01c0.24-14.42,7.33-12.29,11.82-10.16C196.25,153.56,196.02,149.31,192.95,146.94z"/>
		<path class="st1" d="M109.13,92.59c-6.52-4.49-15.44-10.24-19.85-10.56s-6.62,1.58-2.99,13.55s8.98,26.78,7.4,29.78
			s-3.31,5.99,0.95,12.6c4.25,6.62,11.19,16.7,15.76,24.42c4.57,7.72-2.99-50.26-3.62-58.29S113.7,95.74,109.13,92.59z"/>
		<path class="st1" d="M250.29,258.96c4.96,9.01,21.43,27.89,34.35,37.34c12.92,9.45,22.69,8.98,26.47,18.59s7.05,9.93,10.08,9.93
			c5.36,0,4.57,9.77-0.95,9.77s-7.25,0.47-25.21-17.49c-17.96-17.96-50.46-59.87-61.8-71.84
			C221.9,233.28,239.5,239.35,250.29,258.96z"/>
		<path d="M208.37,106.35c0.54,8.66,0.83,17.95,0.83,20.11v0c0,8.42,4.27,15.24,9.54,15.24c2.54,0,4.97,1.61,6.77,4.48l0,0
			c3.73,5.95,9.77,5.95,13.49,0l0,0c1.8-2.87,4.23-4.48,6.77-4.48c5.27,0,9.54-6.82,9.54-15.24v-20.11H208.37z"/>
		<path class="st2" d="M258.11,108.03L258.11,108.03c-1.8-1.8-2.8-4.23-2.8-6.77v0c0-5.27-4.27-9.54-9.54-9.54h0
			c-2.54,0-4.97-1.01-6.77-2.8v0c-3.73-3.73-9.77-3.73-13.49,0l0,0c-1.8,1.8-4.23,2.8-6.77,2.8h0c-5.27,0-9.54,4.27-9.54,9.54v0
			c0,2.54-1.01,4.97-2.8,6.77l0,0c-3.73,3.73-3.73,9.77,0,13.49l0,0c1.8,1.8,2.8,4.23,2.8,6.77v0c0,5.27,4.27,9.54,9.54,9.54h0
			c2.54,0,4.97,1.01,6.77,2.8l0,0c3.73,3.73,9.77,3.73,13.49,0l0,0c1.8-1.8,4.23-2.8,6.77-2.8h0c5.27,0,9.54-4.27,9.54-9.54v0
			c0-2.54,1.01-4.97,2.8-6.77l0,0C261.84,117.79,261.84,111.75,258.11,108.03z"/>
		<g>
			<g>
				<g>
					<path class="st0" d="M316.58,219.03c11.96-16,68.67-100.99,74.73-114.19c6.06-13.21-0.16-20.04-2.04-21.93
						c-1.89-1.89-8.72-8.1-21.93-2.04c-13.21,6.06-98.19,62.77-114.19,74.73c-16,11.96-14.76,18.49-11.19,25.17
						c3.57,6.68,6.68,12.27,10.41,19.73s5.59,10.56-5.44,21.6c-14.6,14.6-64.34,56.26-90.13,77.08
						c-25.79,20.82-21.67,29.84-17.65,33.86c4.02,4.02,13.04,8.14,33.86-17.65c20.82-25.79,62.47-75.52,77.08-90.13
						c11.03-11.03,14.14-9.17,21.6-5.44c7.46,3.73,13.05,6.84,19.73,10.41C298.09,233.79,304.62,235.03,316.58,219.03z"/>
				</g>
			</g>
			<path class="st1" d="M271.8,145.53c0,0,46.08-31.43,55.77-37.81c9.69-6.38,8.98-2.6,0,12.53s0.95,21.74-10.87,45.14
				s-4.25,30.25,2.36,30.25s11.34-0.24,7.09,5.44s-9.22,12.76-13.71,18.2c-4.49,5.44-2.36-10.4-7.09-16.07
				c-4.73-5.67-20.32-28.6-20.56-43.01c-0.24-14.42-7.33-12.29-11.82-10.16S268.73,147.89,271.8,145.53z"/>
			<path class="st1" d="M355.62,91.17c6.52-4.49,15.44-10.24,19.85-10.56c4.41-0.32,6.62,1.58,2.99,13.55
				c-3.62,11.97-8.98,26.78-7.4,29.78c1.58,2.99,3.31,5.99-0.95,12.6s-11.19,16.7-15.76,24.42c-4.57,7.72,2.99-50.26,3.62-58.29
				C358.61,94.64,351.05,94.32,355.62,91.17z"/>
			<path class="st1" d="M214.45,257.54c-4.96,9.01-21.43,27.89-34.35,37.34c-12.92,9.45-22.69,8.98-26.47,18.59
				c-3.78,9.61-7.05,9.93-10.08,9.93c-5.36,0-4.57,9.77,0.95,9.77s7.25,0.47,25.21-17.49c17.96-17.96,50.46-59.87,61.8-71.84
				S225.24,237.93,214.45,257.54z"/>
		</g>
		<g>
			<g>
				<path class="st0" d="M211.3,155.59c-16-11.96-100.99-68.67-114.19-74.73c-13.21-6.06-20.04,0.16-21.93,2.04
					c-1.89,1.89-8.1,8.72-2.04,21.93c6.06,13.21,62.77,98.19,74.73,114.19c11.96,16,18.49,14.76,25.17,11.19
					c6.68-3.57,12.27-6.68,19.73-10.41s10.56-5.59,21.6,5.44c14.6,14.6,56.26,64.34,77.08,90.13
					c20.82,25.79,29.84,21.67,33.86,17.65c4.02-4.02,8.14-13.04-17.65-33.86c-25.79-20.82-75.52-62.47-90.13-77.08
					c-11.03-11.03-9.17-14.14-5.44-21.6c3.73-7.46,6.84-13.05,10.41-19.73C226.06,174.08,227.31,167.56,211.3,155.59z"/>
			</g>
			<path class="st1" d="M192.95,146.94c0,0-46.08-31.43-55.77-37.81c-9.69-6.38-8.98-2.6,0,12.53c8.98,15.12-0.95,21.74,10.87,45.14
				s4.25,30.25-2.36,30.25c-6.62,0-11.34-0.24-7.09,5.44s9.22,12.76,13.71,18.2s2.36-10.4,7.09-16.07
				c4.73-5.67,20.32-28.6,20.56-43.01c0.24-14.42,7.33-12.29,11.82-10.16C196.25,153.56,196.02,149.31,192.95,146.94z"/>
			<path class="st1" d="M109.13,92.59c-6.52-4.49-15.44-10.24-19.85-10.56s-6.62,1.58-2.99,13.55s8.98,26.78,7.4,29.78
				s-3.31,5.99,0.95,12.6c4.25,6.62,11.19,16.7,15.76,24.42c4.57,7.72-2.99-50.26-3.62-58.29S113.7,95.74,109.13,92.59z"/>
			<path class="st1" d="M250.29,258.96c4.96,9.01,21.43,27.89,34.35,37.34c12.92,9.45,22.69,8.98,26.47,18.59s7.05,9.93,10.08,9.93
				c5.36,0,4.57,9.77-0.95,9.77s-7.25,0.47-25.21-17.49c-17.96-17.96-50.46-59.87-61.8-71.84
				C221.9,233.28,239.5,239.35,250.29,258.96z"/>
		</g>
		<g>
			<path d="M208.37,106.35c0.54,8.66,0.83,17.95,0.83,20.11v0c0,8.42,4.27,15.24,9.54,15.24c2.54,0,4.97,1.61,6.77,4.48l0,0
				c3.73,5.95,9.77,5.95,13.49,0l0,0c1.8-2.87,4.23-4.48,6.77-4.48c5.27,0,9.54-6.82,9.54-15.24v-20.11H208.37z"/>
			<path class="st2" d="M258.11,108.03L258.11,108.03c-1.8-1.8-2.8-4.23-2.8-6.77v0c0-5.27-4.27-9.54-9.54-9.54h0
				c-2.54,0-4.97-1.01-6.77-2.8v0c-3.73-3.73-9.77-3.73-13.49,0l0,0c-1.8,1.8-4.23,2.8-6.77,2.8h0c-5.27,0-9.54,4.27-9.54,9.54v0
				c0,2.54-1.01,4.97-2.8,6.77l0,0c-3.73,3.73-3.73,9.77,0,13.49l0,0c1.8,1.8,2.8,4.23,2.8,6.77v0c0,5.27,4.27,9.54,9.54,9.54h0
				c2.54,0,4.97,1.01,6.77,2.8l0,0c3.73,3.73,9.77,3.73,13.49,0l0,0c1.8-1.8,4.23-2.8,6.77-2.8h0c5.27,0,9.54-4.27,9.54-9.54v0
				c0-2.54,1.01-4.97,2.8-6.77l0,0C261.84,117.79,261.84,111.75,258.11,108.03z"/>
		</g>
	</g>
</g>
</svg>
